<svg width="58" height="58" viewBox="0 0 58 58" fill="none" xmlns="http://www.w3.org/2000/svg">
<g id="carbon:delete">
<g id="Group 24">
<path id="Vector" d="M23.7148 24.1428H26.1434V38.7143H23.7148V24.1428ZM31.0006 24.1428H33.4291V38.7143H31.0006V24.1428Z" fill="black"/>
<path id="Vector_2" d="M14 16.8571V19.2857H16.4286V43.5714C16.4286 44.2155 16.6844 44.8332 17.1399 45.2887C17.5953 45.7441 18.213 46 18.8571 46H38.2857C38.9298 46 39.5475 45.7441 40.003 45.2887C40.4584 44.8332 40.7143 44.2155 40.7143 43.5714V19.2857H43.1429V16.8571H14ZM18.8571 43.5714V19.2857H38.2857V43.5714H18.8571ZM23.7143 12H33.4286V14.4286H23.7143V12Z" fill="black"/>
</g>
</g>
</svg>
