<svg width="58" height="58" viewBox="0 0 58 58" fill="none" xmlns="http://www.w3.org/2000/svg">
<g id="fluent:add-16-regular">
<path id="Vector" d="M30.3636 15.3636C30.3636 15.002 30.22 14.6551 29.9642 14.3994C29.7085 14.1437 29.3617 14 29 14C28.6383 14 28.2915 14.1437 28.0358 14.3994C27.78 14.6551 27.6364 15.002 27.6364 15.3636V27.6364H15.3636C15.002 27.6364 14.6551 27.78 14.3994 28.0358C14.1437 28.2915 14 28.6383 14 29C14 29.3617 14.1437 29.7085 14.3994 29.9642C14.6551 30.22 15.002 30.3636 15.3636 30.3636H27.6364V42.6364C27.6364 42.998 27.78 43.3449 28.0358 43.6006C28.2915 43.8563 28.6383 44 29 44C29.3617 44 29.7085 43.8563 29.9642 43.6006C30.22 43.3449 30.3636 42.998 30.3636 42.6364V30.3636H42.6364C42.998 30.3636 43.3449 30.22 43.6006 29.9642C43.8563 29.7085 44 29.3617 44 29C44 28.6383 43.8563 28.2915 43.6006 28.0358C43.3449 27.78 42.998 27.6364 42.6364 27.6364H30.3636V15.3636Z" fill="black"/>
</g>
</svg>
